<svg xmlns="http://www.w3.org/2000/svg" xmlns:xlink="http://www.w3.org/1999/xlink" width="500" zoomAndPan="magnify" viewBox="0 0 375 374.999991" height="500" preserveAspectRatio="xMidYMid meet" version="1.0"><defs><g/><clipPath id="4d2d3d084d"><path d="M 0.457031 0 L 374.542969 0 L 374.542969 374.085938 L 0.457031 374.085938 Z M 0.457031 0 " clip-rule="nonzero"/></clipPath><clipPath id="097c717ea0"><path d="M 187.5 0 C 84.199219 0 0.457031 83.742188 0.457031 187.042969 C 0.457031 290.34375 84.199219 374.085938 187.5 374.085938 C 290.800781 374.085938 374.542969 290.34375 374.542969 187.042969 C 374.542969 83.742188 290.800781 0 187.5 0 Z M 187.5 0 " clip-rule="nonzero"/></clipPath><clipPath id="48ad53f1ce"><path d="M 15.046875 14.589844 L 359.953125 14.589844 L 359.953125 359.496094 L 15.046875 359.496094 Z M 15.046875 14.589844 " clip-rule="nonzero"/></clipPath><clipPath id="29bc35852b"><path d="M 187.5 14.589844 C 92.257812 14.589844 15.046875 91.800781 15.046875 187.042969 C 15.046875 282.289062 92.257812 359.496094 187.5 359.496094 C 282.742188 359.496094 359.953125 282.289062 359.953125 187.042969 C 359.953125 91.800781 282.742188 14.589844 187.5 14.589844 Z M 187.5 14.589844 " clip-rule="nonzero"/></clipPath><clipPath id="44291035e2"><path d="M 15.046875 14.589844 L 359.953125 14.589844 L 359.953125 359.496094 L 15.046875 359.496094 Z M 15.046875 14.589844 " clip-rule="nonzero"/></clipPath><clipPath id="5adccb3baf"><path d="M 187.5 14.589844 C 92.257812 14.589844 15.046875 91.800781 15.046875 187.042969 C 15.046875 282.285156 92.257812 359.496094 187.5 359.496094 C 282.742188 359.496094 359.953125 282.285156 359.953125 187.042969 C 359.953125 91.800781 282.742188 14.589844 187.5 14.589844 Z M 187.5 14.589844 " clip-rule="nonzero"/></clipPath><clipPath id="71913b5cc4"><path d="M 135.367188 27.792969 L 215 27.792969 L 215 107.292969 L 135.367188 107.292969 Z M 135.367188 27.792969 " clip-rule="nonzero"/></clipPath><clipPath id="a5aff6d2c9"><path d="M 199 67 L 239.617188 67 L 239.617188 107.292969 L 199 107.292969 Z M 199 67 " clip-rule="nonzero"/></clipPath><clipPath id="318746ccca"><path d="M 135.367188 27.792969 L 211 27.792969 L 211 104 L 135.367188 104 Z M 135.367188 27.792969 " clip-rule="nonzero"/></clipPath></defs><rect x="-37.5" width="450" fill="#ffffff" y="-37.499999" height="449.999989" fill-opacity="1"/><rect x="-37.5" width="450" fill="#51abb2" y="-37.499999" height="449.999989" fill-opacity="1"/><g clip-path="url(#4d2d3d084d)"><g clip-path="url(#097c717ea0)"><path fill="#f0dfc8" d="M 0.457031 0 L 374.542969 0 L 374.542969 374.085938 L 0.457031 374.085938 Z M 0.457031 0 " fill-opacity="1" fill-rule="nonzero"/></g></g><g clip-path="url(#48ad53f1ce)"><g clip-path="url(#29bc35852b)"><path fill="#e16539" d="M 15.046875 14.589844 L 359.953125 14.589844 L 359.953125 359.496094 L 15.046875 359.496094 Z M 15.046875 14.589844 " fill-opacity="1" fill-rule="nonzero"/></g></g><g clip-path="url(#44291035e2)"><g clip-path="url(#5adccb3baf)"><path stroke-linecap="butt" transform="matrix(0.75, 0, 0, 0.75, 15.046102, 14.590008)" fill="none" stroke-linejoin="miter" d="M 229.938545 -0.000218363 C 102.948954 -0.000218363 0.00103036 102.947705 0.00103036 229.937297 C 0.00103036 356.926888 102.948954 459.874812 229.938545 459.874812 C 356.928137 459.874812 459.876061 356.926888 459.876061 229.937297 C 459.876061 102.947705 356.928137 -0.000218363 229.938545 -0.000218363 Z M 229.938545 -0.000218363 " stroke="#303030" stroke-width="12" stroke-opacity="1" stroke-miterlimit="4"/></g></g><g clip-path="url(#71913b5cc4)"><path fill="#f0dfc8" d="M 175.917969 49.050781 C 176.039062 50.15625 176.25 51.246094 176.558594 52.316406 C 176.863281 53.386719 177.253906 54.421875 177.738281 55.425781 C 178.21875 56.429688 178.78125 57.386719 179.421875 58.292969 C 180.066406 59.203125 180.78125 60.050781 181.566406 60.835938 C 182.355469 61.625 183.203125 62.339844 184.109375 62.980469 C 185.019531 63.625 185.976562 64.1875 186.980469 64.667969 C 187.980469 65.148438 189.019531 65.542969 190.089844 65.847656 C 191.160156 66.152344 192.246094 66.367188 193.355469 66.488281 C 200.398438 67.1875 207.457031 67.511719 214.535156 67.453125 C 207.457031 67.394531 200.398438 67.714844 193.355469 68.417969 C 192.246094 68.539062 191.160156 68.753906 190.089844 69.058594 C 189.019531 69.363281 187.980469 69.757812 186.980469 70.238281 C 185.976562 70.71875 185.019531 71.28125 184.109375 71.921875 C 183.203125 72.566406 182.355469 73.28125 181.566406 74.070312 C 180.78125 74.855469 180.066406 75.703125 179.421875 76.613281 C 178.78125 77.519531 178.21875 78.476562 177.738281 79.480469 C 177.253906 80.484375 176.863281 81.519531 176.558594 82.589844 C 176.25 83.660156 176.039062 84.75 175.917969 85.855469 C 175.214844 92.898438 174.894531 99.957031 174.953125 107.035156 C 175.011719 99.957031 174.6875 92.898438 173.988281 85.855469 C 173.867188 84.75 173.652344 83.660156 173.347656 82.589844 C 173.042969 81.519531 172.648438 80.484375 172.167969 79.480469 C 171.6875 78.476562 171.125 77.519531 170.480469 76.613281 C 169.839844 75.703125 169.121094 74.855469 168.335938 74.070312 C 167.550781 73.28125 166.703125 72.566406 165.792969 71.921875 C 164.886719 71.28125 163.929688 70.71875 162.925781 70.238281 C 161.921875 69.753906 160.886719 69.363281 159.816406 69.058594 C 158.746094 68.75 157.65625 68.539062 156.550781 68.417969 C 149.507812 67.714844 142.445312 67.394531 135.367188 67.453125 C 142.445312 67.511719 149.507812 67.1875 156.550781 66.488281 C 157.65625 66.367188 158.746094 66.152344 159.816406 65.847656 C 160.886719 65.542969 161.921875 65.148438 162.925781 64.667969 C 163.929688 64.1875 164.886719 63.625 165.792969 62.980469 C 166.703125 62.339844 167.546875 61.621094 168.335938 60.835938 C 169.121094 60.050781 169.835938 59.203125 170.480469 58.292969 C 171.125 57.386719 171.6875 56.429688 172.167969 55.425781 C 172.648438 54.421875 173.042969 53.386719 173.347656 52.316406 C 173.652344 51.246094 173.867188 50.15625 173.988281 49.050781 C 174.6875 42.007812 175.011719 34.945312 174.953125 27.871094 C 174.894531 34.945312 175.214844 42.007812 175.917969 49.050781 Z M 175.917969 49.050781 " fill-opacity="1" fill-rule="nonzero"/></g><g clip-path="url(#a5aff6d2c9)"><path fill="#f0dfc8" d="M 220.109375 78.171875 C 220.171875 78.730469 220.277344 79.28125 220.433594 79.824219 C 220.589844 80.363281 220.785156 80.890625 221.03125 81.398438 C 221.273438 81.90625 221.558594 82.386719 221.882812 82.847656 C 222.210938 83.308594 222.570312 83.738281 222.96875 84.136719 C 223.367188 84.53125 223.796875 84.894531 224.257812 85.21875 C 224.714844 85.546875 225.199219 85.832031 225.707031 86.074219 C 226.214844 86.316406 226.738281 86.515625 227.28125 86.671875 C 227.824219 86.824219 228.375 86.933594 228.933594 86.996094 C 232.496094 87.347656 236.070312 87.511719 239.652344 87.484375 C 236.070312 87.453125 232.496094 87.617188 228.933594 87.972656 C 228.375 88.03125 227.824219 88.140625 227.28125 88.296875 C 226.738281 88.449219 226.214844 88.648438 225.707031 88.890625 C 225.199219 89.136719 224.714844 89.421875 224.257812 89.746094 C 223.796875 90.070312 223.367188 90.433594 222.96875 90.832031 C 222.570312 91.230469 222.210938 91.660156 221.882812 92.117188 C 221.558594 92.578125 221.273438 93.0625 221.03125 93.570312 C 220.785156 94.078125 220.589844 94.601562 220.433594 95.144531 C 220.277344 95.683594 220.171875 96.234375 220.109375 96.796875 C 219.753906 100.359375 219.59375 103.933594 219.621094 107.515625 C 219.652344 103.933594 219.488281 100.359375 219.132812 96.796875 C 219.070312 96.234375 218.964844 95.683594 218.808594 95.144531 C 218.65625 94.601562 218.457031 94.078125 218.210938 93.570312 C 217.96875 93.0625 217.683594 92.578125 217.359375 92.117188 C 217.03125 91.65625 216.671875 91.230469 216.273438 90.832031 C 215.875 90.433594 215.445312 90.070312 214.984375 89.746094 C 214.527344 89.417969 214.042969 89.136719 213.535156 88.890625 C 213.027344 88.648438 212.503906 88.449219 211.960938 88.292969 C 211.417969 88.140625 210.867188 88.03125 210.308594 87.972656 C 206.746094 87.617188 203.171875 87.453125 199.589844 87.484375 C 203.171875 87.511719 206.746094 87.347656 210.308594 86.996094 C 210.867188 86.933594 211.417969 86.824219 211.960938 86.671875 C 212.503906 86.515625 213.027344 86.316406 213.535156 86.074219 C 214.042969 85.832031 214.527344 85.546875 214.984375 85.21875 C 215.445312 84.894531 215.875 84.535156 216.273438 84.136719 C 216.671875 83.738281 217.03125 83.308594 217.359375 82.847656 C 217.683594 82.390625 217.96875 81.90625 218.210938 81.398438 C 218.457031 80.890625 218.65625 80.363281 218.808594 79.824219 C 218.964844 79.28125 219.070312 78.730469 219.132812 78.171875 C 219.488281 74.605469 219.652344 71.035156 219.625 67.453125 C 219.59375 71.035156 219.753906 74.605469 220.109375 78.171875 Z M 220.109375 78.171875 " fill-opacity="1" fill-rule="nonzero"/></g><path fill="#f0dfc8" d="M 205.054688 38.640625 C 205.128906 39.332031 205.316406 39.988281 205.613281 40.613281 C 205.914062 41.238281 206.308594 41.792969 206.800781 42.285156 C 207.289062 42.773438 207.847656 43.167969 208.46875 43.46875 C 209.09375 43.765625 209.75 43.953125 210.441406 44.03125 C 212.617188 44.246094 214.796875 44.347656 216.984375 44.328125 C 214.796875 44.308594 212.617188 44.410156 210.441406 44.625 C 209.75 44.703125 209.09375 44.890625 208.46875 45.1875 C 207.847656 45.488281 207.289062 45.882812 206.800781 46.371094 C 206.308594 46.863281 205.914062 47.417969 205.613281 48.042969 C 205.316406 48.667969 205.128906 49.324219 205.054688 50.015625 C 204.835938 52.191406 204.738281 54.371094 204.753906 56.558594 C 204.773438 54.371094 204.671875 52.191406 204.457031 50.015625 C 204.382812 49.324219 204.195312 48.667969 203.894531 48.042969 C 203.59375 47.417969 203.199219 46.863281 202.710938 46.371094 C 202.21875 45.882812 201.664062 45.488281 201.039062 45.1875 C 200.414062 44.890625 199.757812 44.703125 199.070312 44.625 C 196.894531 44.410156 194.710938 44.308594 192.523438 44.328125 C 194.710938 44.347656 196.894531 44.246094 199.070312 44.03125 C 199.757812 43.953125 200.414062 43.765625 201.039062 43.46875 C 201.664062 43.167969 202.21875 42.773438 202.710938 42.285156 C 203.199219 41.792969 203.59375 41.238281 203.890625 40.613281 C 204.191406 39.988281 204.378906 39.332031 204.453125 38.640625 C 204.671875 36.464844 204.773438 34.285156 204.753906 32.097656 C 204.738281 34.285156 204.835938 36.464844 205.054688 38.640625 Z M 205.054688 38.640625 " fill-opacity="1" fill-rule="nonzero"/><g clip-path="url(#318746ccca)"><path fill="#303030" d="M 174.105469 48.097656 C 174.21875 49.152344 174.421875 50.195312 174.714844 51.214844 C 175.007812 52.238281 175.382812 53.230469 175.839844 54.1875 C 176.300781 55.144531 176.835938 56.058594 177.453125 56.925781 C 178.066406 57.792969 178.75 58.605469 179.5 59.355469 C 180.253906 60.109375 181.0625 60.789062 181.929688 61.40625 C 182.796875 62.019531 183.710938 62.558594 184.667969 63.015625 C 185.628906 63.476562 186.617188 63.851562 187.640625 64.144531 C 188.664062 64.433594 189.703125 64.636719 190.761719 64.753906 C 197.488281 65.425781 204.234375 65.730469 210.992188 65.675781 C 204.234375 65.621094 197.488281 65.929688 190.761719 66.597656 C 189.703125 66.714844 188.664062 66.917969 187.640625 67.210938 C 186.617188 67.5 185.628906 67.875 184.671875 68.335938 C 183.710938 68.796875 182.796875 69.332031 181.929688 69.949219 C 181.0625 70.5625 180.253906 71.246094 179.5 71.996094 C 178.75 72.75 178.066406 73.558594 177.453125 74.425781 C 176.839844 75.292969 176.300781 76.207031 175.839844 77.164062 C 175.382812 78.125 175.007812 79.113281 174.714844 80.136719 C 174.421875 81.160156 174.21875 82.199219 174.105469 83.253906 C 173.433594 89.984375 173.125 96.726562 173.179688 103.488281 C 173.238281 96.726562 172.929688 89.984375 172.257812 83.253906 C 172.144531 82.199219 171.941406 81.160156 171.648438 80.136719 C 171.355469 79.113281 170.980469 78.125 170.519531 77.164062 C 170.0625 76.207031 169.523438 75.292969 168.910156 74.425781 C 168.296875 73.558594 167.613281 72.75 166.859375 71.996094 C 166.109375 71.246094 165.300781 70.5625 164.433594 69.945312 C 163.566406 69.332031 162.652344 68.796875 161.691406 68.335938 C 160.734375 67.875 159.742188 67.5 158.722656 67.207031 C 157.699219 66.917969 156.660156 66.714844 155.601562 66.597656 C 148.875 65.929688 142.128906 65.621094 135.367188 65.675781 C 142.128906 65.730469 148.875 65.425781 155.601562 64.753906 C 156.660156 64.636719 157.699219 64.433594 158.722656 64.144531 C 159.742188 63.851562 160.734375 63.476562 161.691406 63.015625 C 162.652344 62.554688 163.566406 62.019531 164.433594 61.40625 C 165.300781 60.789062 166.109375 60.105469 166.859375 59.355469 C 167.613281 58.605469 168.296875 57.792969 168.910156 56.925781 C 169.523438 56.058594 170.0625 55.144531 170.519531 54.1875 C 170.980469 53.230469 171.355469 52.238281 171.648438 51.214844 C 171.941406 50.195312 172.144531 49.152344 172.257812 48.097656 C 172.929688 41.371094 173.238281 34.625 173.179688 27.863281 C 173.125 34.625 173.433594 41.371094 174.105469 48.097656 Z M 174.105469 48.097656 " fill-opacity="1" fill-rule="nonzero"/></g><path fill="#303030" d="M 216.320312 75.914062 C 216.378906 76.449219 216.480469 76.976562 216.628906 77.492188 C 216.777344 78.011719 216.964844 78.511719 217.199219 78.996094 C 217.429688 79.480469 217.703125 79.945312 218.015625 80.382812 C 218.324219 80.824219 218.671875 81.230469 219.050781 81.613281 C 219.429688 81.992188 219.839844 82.339844 220.28125 82.648438 C 220.71875 82.960938 221.179688 83.230469 221.667969 83.464844 C 222.152344 83.699219 222.652344 83.886719 223.167969 84.035156 C 223.6875 84.183594 224.214844 84.285156 224.75 84.34375 C 228.152344 84.683594 231.566406 84.839844 234.988281 84.8125 C 231.566406 84.78125 228.152344 84.9375 224.75 85.277344 C 224.214844 85.335938 223.6875 85.4375 223.167969 85.585938 C 222.652344 85.734375 222.152344 85.925781 221.667969 86.15625 C 221.179688 86.390625 220.71875 86.660156 220.28125 86.972656 C 219.839844 87.28125 219.429688 87.628906 219.050781 88.007812 C 218.671875 88.390625 218.324219 88.800781 218.015625 89.238281 C 217.703125 89.675781 217.429688 90.140625 217.199219 90.625 C 216.964844 91.109375 216.777344 91.609375 216.628906 92.128906 C 216.480469 92.644531 216.378906 93.171875 216.320312 93.707031 C 215.980469 97.109375 215.824219 100.523438 215.851562 103.945312 C 215.878906 100.523438 215.726562 97.109375 215.386719 93.707031 C 215.328125 93.171875 215.222656 92.644531 215.078125 92.128906 C 214.929688 91.609375 214.738281 91.109375 214.507812 90.625 C 214.273438 90.140625 214 89.675781 213.691406 89.238281 C 213.378906 88.800781 213.035156 88.390625 212.652344 88.007812 C 212.273438 87.628906 211.863281 87.28125 211.425781 86.972656 C 210.984375 86.660156 210.523438 86.390625 210.039062 86.15625 C 209.554688 85.925781 209.050781 85.734375 208.535156 85.585938 C 208.015625 85.4375 207.492188 85.335938 206.957031 85.277344 C 203.550781 84.9375 200.140625 84.78125 196.71875 84.8125 C 200.140625 84.839844 203.550781 84.683594 206.957031 84.34375 C 207.492188 84.285156 208.015625 84.183594 208.535156 84.035156 C 209.050781 83.886719 209.554688 83.699219 210.039062 83.464844 C 210.523438 83.230469 210.984375 82.960938 211.425781 82.648438 C 211.863281 82.339844 212.273438 81.992188 212.652344 81.613281 C 213.035156 81.230469 213.378906 80.824219 213.691406 80.382812 C 214 79.945312 214.273438 79.480469 214.507812 78.996094 C 214.738281 78.511719 214.929688 78.011719 215.078125 77.492188 C 215.222656 76.976562 215.328125 76.449219 215.386719 75.914062 C 215.726562 72.511719 215.882812 69.097656 215.855469 65.675781 C 215.824219 69.097656 215.980469 72.511719 216.320312 75.914062 Z M 216.320312 75.914062 " fill-opacity="1" fill-rule="nonzero"/><path fill="#303030" d="M 201.9375 38.15625 C 202.007812 38.8125 202.1875 39.441406 202.472656 40.035156 C 202.757812 40.632812 203.136719 41.164062 203.605469 41.632812 C 204.070312 42.101562 204.605469 42.480469 205.199219 42.765625 C 205.796875 43.050781 206.425781 43.230469 207.082031 43.300781 C 209.160156 43.507812 211.246094 43.601562 213.332031 43.585938 C 211.246094 43.570312 209.160156 43.664062 207.082031 43.871094 C 206.425781 43.941406 205.796875 44.121094 205.199219 44.40625 C 204.605469 44.695312 204.070312 45.070312 203.601562 45.539062 C 203.136719 46.007812 202.757812 46.539062 202.472656 47.136719 C 202.1875 47.734375 202.007812 48.359375 201.9375 49.019531 C 201.730469 51.097656 201.632812 53.179688 201.652344 55.269531 C 201.667969 53.179688 201.574219 51.097656 201.367188 49.019531 C 201.292969 48.359375 201.113281 47.734375 200.828125 47.136719 C 200.542969 46.539062 200.164062 46.007812 199.699219 45.539062 C 199.230469 45.070312 198.699219 44.695312 198.101562 44.40625 C 197.503906 44.121094 196.878906 43.941406 196.21875 43.871094 C 194.140625 43.664062 192.054688 43.570312 189.96875 43.585938 C 192.054688 43.601562 194.140625 43.507812 196.21875 43.300781 C 196.875 43.230469 197.503906 43.050781 198.101562 42.765625 C 198.695312 42.476562 199.230469 42.101562 199.695312 41.632812 C 200.164062 41.164062 200.542969 40.632812 200.828125 40.035156 C 201.113281 39.441406 201.292969 38.8125 201.363281 38.15625 C 201.570312 36.074219 201.667969 33.992188 201.652344 31.902344 C 201.632812 33.992188 201.730469 36.074219 201.9375 38.15625 Z M 201.9375 38.15625 " fill-opacity="1" fill-rule="nonzero"/><path stroke-linecap="butt" transform="matrix(1.369337, -0.208224, 0.208224, 1.369337, -15.337542, 136.75915)" fill="none" stroke-linejoin="miter" d="M 38.320352 55.83316 C 43.212326 55.83535 45.421482 52.882163 45.421733 50.197851 C 45.421186 47.424985 43.482368 47.155839 43.482691 45.127649 C 43.483064 44.112159 44.025366 42.534376 46.256181 42.534131 C 53.536137 42.534301 51.238876 55.090398 68.235017 55.09035 C 81.984853 55.090173 89.085806 37.28251 92.149878 32.008891 C 93.164871 30.249099 89.46731 27.476033 87.980991 29.709012 C 85.951731 32.661027 82.43623 33.587015 78.19759 33.584329 C 70.715009 33.584726 68.030774 29.32547 60.006142 29.326169 C 53.830229 29.325575 51.328723 30.9934 48.938055 34.127229 C 48.104876 35.141598 46.707362 34.689467 46.706938 33.585424 C 46.705497 22.676642 92.331963 27.115745 92.33204 -4.195011 C 92.331391 -10.100111 91.496817 -14.066695 87.799803 -14.066895 C 83.652081 -14.067166 86.784538 -9.266211 79.866738 -9.265512 C 73.126044 -9.266408 64.987117 -14.066995 56.874355 -14.068286 C 44.496588 -14.067715 36.562453 -5.207163 36.562901 4.39495 C 36.562378 10.120154 39.786552 15.012077 45.152389 15.012154 C 47.811183 15.011377 49.029743 13.544985 49.028521 12.352388 C 49.029569 10.86346 47.629943 11.044298 47.632306 8.833848 C 47.630588 6.987917 48.937701 5.520727 51.687414 5.522364 C 57.233147 5.52127 61.854287 8.092459 67.308677 8.091738 C 75.244755 8.091836 75.897865 3.290284 77.746584 3.28899 C 78.648002 3.289133 79.121139 3.854589 79.121563 4.958632 C 79.121862 19.27046 29.822059 10.2106 29.822882 45.848974 C 29.822359 51.574178 32.483865 55.832831 38.320352 55.83316 Z M 95.642973 54.999028 C 102.200982 55.000672 107.748481 49.003561 111.445097 41.52118 L 111.804888 41.518837 C 110.70199 49.184526 113.383365 55.000898 119.739174 55.000322 C 129.997409 54.999801 135.06903 40.594862 139.598451 32.006771 C 140.521678 30.250141 136.826906 27.477498 135.452295 29.707495 C 133.602506 32.661127 131.281269 34.419123 128.149036 34.419224 C 124.089867 34.418155 123.076942 30.72398 126.210071 23.983185 C 128.238339 18.617671 130.650494 15.755259 130.651261 12.26087 C 130.6494 10.209526 129.816989 8.836337 127.403914 8.834541 C 123.076296 8.835441 122.422014 12.350267 119.37791 12.352359 C 116.967624 12.350987 117.351092 8.834918 109.957064 8.834518 C 94.087696 8.834746 86.130533 28.220954 86.130853 41.069372 C 86.129936 49.273475 89.375718 54.998808 95.642973 54.999028 Z M 104.885196 35.88525 C 102.021411 35.883382 100.26274 34.035584 100.262639 30.903351 C 100.263284 26.84697 103.305921 22.314635 108.109765 22.314834 C 111.062103 22.315904 112.909328 24.162905 112.908632 27.206585 C 112.909603 31.083494 109.686252 35.885026 104.885196 35.88525 Z M 139.605098 55.0002 C 145.692882 54.998804 146.886073 49.928501 146.886647 45.215998 L 146.885574 38.206855 C 146.886894 32.570205 151.95944 32.097785 152.6122 36.809792 C 154.369703 49.546006 156.849323 55.000791 163.227861 55.000818 C 176.258962 54.999751 182.907022 37.168862 185.860005 32.00672 C 186.874574 30.249717 183.833085 26.463877 181.690695 29.709629 C 179.391297 33.293794 174.769956 34.419619 169.426849 34.420145 C 164.335038 34.418947 161.110542 32.662045 161.111238 29.618366 C 161.110993 27.38755 162.396426 25.53766 165.551015 25.44682 C 173.101784 25.448233 176.978592 22.315029 176.979416 16.025044 C 176.979013 12.35076 174.409719 8.836409 168.864411 8.834715 C 162.214635 8.836234 157.978138 13.997183 154.19018 22.586769 C 153.085563 25.086034 148.55532 25.087501 149.095279 22.043096 C 150.853077 13.184738 155.475011 4.776169 158.789531 -2.707261 C 161.470407 -8.612534 160.365817 -11.384976 156.580249 -11.384379 C 149.09488 -11.384405 144.857732 2.748053 135.526483 29.707366 C 133.677917 34.960425 132.391465 40.775355 132.390892 45.487858 C 132.391612 50.942248 134.24205 55.000547 139.605098 55.0002 Z M 198.12365 5.048298 C 202.924706 5.048074 206.711768 3.199181 207.277071 -2.525721 C 207.728302 -8.250853 203.939451 -10.010845 199.229736 -10.010994 C 194.157442 -10.009225 190.008599 -8.06986 190.009743 -1.511426 C 190.010341 3.380972 193.707902 5.047207 198.12365 5.048298 Z M 187.892054 55.000049 C 199.793171 55.001166 205.697798 36.900334 208.651952 31.918088 C 209.575977 30.250011 205.969758 27.476571 204.503381 29.70973 C 202.655633 32.481102 200.897366 34.307588 198.124499 34.308135 C 195.6456 34.30774 193.976848 32.750323 193.97712 29.709431 C 193.976149 24.725691 198.125443 18.618662 198.123975 12.981588 C 198.125045 10.02925 196.928862 8.834663 194.992014 8.833967 C 189.740248 8.834119 185.951866 16.319662 181.690695 29.709629 C 180.317112 34.12777 179.391572 39.107552 179.391868 43.457899 C 179.392215 49.927779 181.690624 54.998427 187.892054 55.000049 Z M 240.877643 29.709553 C 239.027107 32.480501 237.269034 34.41827 234.518897 34.419421 C 230.351233 34.418969 228.794389 32.48205 228.795014 29.889079 C 228.795536 24.163875 232.762816 20.285621 232.760479 15.010702 C 232.761872 10.030174 223.881056 4.124049 215.20309 4.125245 C 210.219774 4.123428 206.997666 8.654147 206.99784 12.442502 C 206.996325 15.754207 208.192508 16.948794 210.041298 17.603622 C 208.460527 21.864741 206.16205 27.206282 204.403675 29.708832 C 203.20921 31.467007 207.358651 34.42004 208.575349 32.009135 C 210.039455 28.965476 213.083959 22.676188 214.752379 19.001781 C 218.448574 20.376838 219.642393 22.675043 219.641646 23.599191 C 219.642315 28.04088 213.173631 36.719193 213.174029 45.308605 C 213.17388 50.01832 215.765458 54.999472 223.33938 54.998701 C 235.805278 55.00012 242.070443 37.079629 245.0238 32.008829 C 246.061522 30.249641 242.363961 27.476574 240.877643 29.709553 Z M 240.877643 29.709553 " stroke="#f0dfc8" stroke-width="6.925335" stroke-opacity="1" stroke-miterlimit="4"/><path stroke-linecap="butt" transform="matrix(1.369337, -0.208224, 0.208224, 1.369337, -15.337542, 136.75915)" fill="none" stroke-linejoin="miter" d="M 67.322693 131.833592 C 72.212303 131.83257 74.421035 128.882171 74.421286 126.197859 C 74.420739 123.424993 72.484709 123.156271 72.482244 121.127657 C 72.482617 120.112167 73.024919 118.534384 75.255734 118.534139 C 82.53569 118.534309 80.238429 131.090406 97.23457 131.090358 C 110.984406 131.090181 118.085359 113.282518 121.149431 108.008899 C 122.164424 106.249107 118.466863 103.476041 116.980544 105.70902 C 114.951284 108.661035 111.435783 109.587023 107.197143 109.584336 C 99.714562 109.584734 97.030327 105.325478 89.005695 105.326177 C 82.829782 105.325583 80.328276 106.993408 77.937608 110.127237 C 77.104429 111.141606 75.706915 110.689474 75.706491 109.585431 C 75.708262 98.674286 121.331516 103.115753 121.331593 71.804996 C 121.330944 65.899897 120.49637 61.933313 116.799356 61.933113 C 112.651633 61.932841 115.786879 66.73422 108.86629 66.734496 C 102.125597 66.733599 93.98667 61.933013 85.873908 61.931722 C 73.498929 61.932717 65.562006 70.792844 65.562454 80.394958 C 65.561931 86.120162 68.786105 91.012085 74.151941 91.012162 C 76.810736 91.011385 78.029296 89.544993 78.028074 88.352396 C 78.029122 86.863468 76.632284 87.04473 76.631859 84.833855 C 76.630565 82.985137 77.937254 81.520735 80.686967 81.522372 C 86.232699 81.521278 90.854264 84.089678 96.311019 84.09217 C 104.244308 84.091844 104.897418 79.290292 106.746137 79.288998 C 107.647555 79.289141 108.120692 79.854597 108.121116 80.95864 C 108.121415 95.270467 58.8244 86.211031 58.822435 121.848982 C 58.821912 127.574186 61.483418 131.832839 67.322693 131.833592 Z M 133.410711 81.047264 C 138.211768 81.04704 141.998829 79.198148 142.564132 73.473245 C 143.015364 67.748113 139.226088 65.99091 134.516373 65.99076 C 129.444503 65.989741 125.29566 67.929106 125.296805 74.48754 C 125.297403 79.379938 128.994539 81.048962 133.410711 81.047264 Z M 123.179116 130.999015 C 135.080233 131.000132 140.984859 112.8993 143.939014 107.917054 C 144.863038 106.248978 141.25682 103.475538 139.790443 105.708696 C 137.942695 108.480068 136.184427 110.306554 133.411561 110.307101 C 130.932662 110.306707 129.263486 108.752077 129.264182 105.708398 C 129.262786 100.727446 133.412505 94.617629 133.410613 88.983343 C 133.411683 86.031005 132.215924 84.83363 130.278651 84.835721 C 125.026886 84.835874 121.238928 92.318629 116.977756 105.708596 C 115.604173 110.126737 114.678209 115.109306 114.678505 119.459654 C 114.679276 125.926745 116.980049 131.000605 123.179116 130.999015 Z M 143.860693 131.000259 C 149.948476 130.998863 151.141668 125.928559 151.142241 121.216056 L 151.141168 114.206914 C 151.142489 108.570264 156.215034 108.097844 156.867795 112.809851 C 158.625298 125.546065 161.104917 131.00085 167.486244 131.001301 C 180.514557 130.999809 187.165405 113.169345 190.115599 108.006779 C 191.130168 106.249775 188.088679 102.463936 185.946289 105.709688 C 183.646891 109.293853 179.025551 110.419678 173.685232 110.420628 C 168.590632 110.419006 165.366137 108.662104 165.366833 105.618424 C 165.366588 103.387609 166.65202 101.537718 169.806609 101.446879 C 177.357379 101.448292 181.234186 98.315087 181.235011 92.025103 C 181.234607 88.350819 178.665738 84.83368 173.120005 84.834774 C 166.47023 84.836292 162.233732 89.997242 158.446199 98.584039 C 157.341158 101.086093 152.810914 101.08756 153.350873 98.043154 C 155.108671 89.184797 159.730606 80.776227 163.045125 73.292797 C 165.726001 67.387524 164.621411 64.615083 160.835844 64.61568 C 153.350475 64.615654 149.113326 78.748112 139.782078 105.707424 C 137.933512 110.960484 136.649848 116.775837 136.649275 121.48834 C 136.647207 126.942307 138.497644 131.000606 143.860693 131.000259 Z M 222.420682 105.707621 C 220.57251 108.481782 218.814436 110.41955 216.0643 110.420701 C 211.893848 110.419826 210.337428 108.480118 210.337628 105.889935 C 210.338575 100.161943 214.305431 96.286477 214.305882 91.011982 C 214.30491 86.028242 205.423671 80.124905 196.746129 80.123313 C 191.762389 80.124284 188.540281 84.655003 188.540879 88.44057 C 188.538939 91.755063 189.735122 92.94965 191.583913 93.604478 C 190.006354 97.863233 187.704664 103.207139 185.946713 105.7069 C 184.751825 107.467863 188.901266 110.420896 190.118388 108.007203 C 191.582494 104.963544 194.626998 98.674256 196.294994 95.002637 C 199.991612 96.374906 201.185007 98.6759 201.187049 99.600471 C 201.185354 104.038948 194.716246 112.720049 194.717068 121.306673 C 194.716494 126.019176 197.308072 131.000329 204.881995 130.999557 C 217.347892 131.000976 223.615846 113.080909 226.566838 108.006897 C 227.604137 106.250497 223.906576 103.477431 222.420682 105.707621 Z M 238.850424 81.048654 C 243.651481 81.04843 247.438542 79.199538 248.001057 73.474211 C 248.452289 67.749079 244.666225 65.989512 239.953722 65.988938 C 234.884217 65.991131 230.735798 67.927708 230.736518 74.48893 C 230.734328 79.380904 234.431888 81.047139 238.850424 81.048654 Z M 228.616041 130.999981 C 240.517158 131.001098 246.424997 112.897902 249.375939 107.91802 C 250.299963 106.249944 246.693745 103.476504 245.23058 105.707298 C 243.382408 108.481458 241.621352 110.30752 238.851698 110.305703 C 236.369587 110.307673 234.703623 108.750679 234.701107 105.709364 C 234.702923 100.726047 238.84943 94.618595 238.85075 88.981944 C 238.849032 86.029183 237.655637 84.83502 235.716 84.833899 C 230.464235 84.834052 226.678641 92.320019 222.417893 105.707197 C 221.041098 110.127703 220.118346 115.107908 220.118642 119.458255 C 220.118989 125.928135 222.417398 130.998783 228.616041 130.999981 Z M 228.616041 130.999981 " stroke="#f0dfc8" stroke-width="6.925335" stroke-opacity="1" stroke-miterlimit="4"/><g fill="#303030" fill-opacity="1"><g transform="translate(37.323243, 205.80647)"><g><path d="M 11.425781 -0.574219 C 18.125 -1.59375 20.546875 -6.097656 19.988281 -9.765625 C 19.410156 -13.558594 16.699219 -13.535156 16.273438 -16.316406 C 16.0625 -17.707031 16.496094 -19.972656 19.53125 -20.433594 C 29.519531 -21.953125 28.972656 -4.277344 52.234375 -7.8125 C 71.074219 -10.679688 77.097656 -36.558594 80.175781 -44.402344 C 81.199219 -47.015625 75.566406 -50.039062 74.003906 -46.695312 C 71.839844 -42.226562 67.226562 -40.234375 61.410156 -39.347656 C 51.167969 -37.792969 46.617188 -43.050781 35.617188 -41.375 C 27.148438 -40.089844 24.082031 -37.292969 21.445312 -32.496094 C 20.519531 -30.929688 18.527344 -31.273438 18.296875 -32.792969 C 16.027344 -47.710938 79.410156 -51.140625 72.890625 -94 C 71.660156 -102.089844 69.695312 -107.355469 64.640625 -106.585938 C 58.949219 -105.722656 64.246094 -99.800781 54.765625 -98.359375 C 45.535156 -96.953125 33.410156 -101.835938 22.285156 -100.144531 C 5.34375 -97.570312 -3.683594 -83.777344 -1.683594 -70.628906 C -0.492188 -62.792969 4.949219 -56.761719 12.285156 -57.878906 C 15.949219 -58.4375 17.285156 -60.707031 17.035156 -62.351562 C 16.730469 -64.375 14.871094 -63.832031 14.410156 -66.867188 C 14.023438 -69.398438 15.488281 -71.6875 19.28125 -72.265625 C 26.867188 -73.417969 33.726562 -70.839844 41.183594 -71.976562 C 52.058594 -73.628906 51.945312 -80.335938 54.472656 -80.722656 C 55.738281 -80.914062 56.484375 -80.25 56.714844 -78.734375 C 59.695312 -59.136719 -9.703125 -61.261719 -2.28125 -12.460938 C -1.089844 -4.621094 3.460938 0.636719 11.425781 -0.574219 Z M 11.425781 -0.574219 "/></g></g></g><g fill="#303030" fill-opacity="1"><g transform="translate(113.68592, 194.194644)"><g><path d="M 13.402344 -2.039062 C 22.378906 -3.402344 28.714844 -12.773438 32.214844 -23.785156 L 32.71875 -23.859375 C 32.796875 -13.136719 37.675781 -5.730469 46.398438 -7.054688 C 60.433594 -9.191406 64.386719 -29.96875 68.796875 -42.671875 C 69.695312 -45.265625 64.0625 -48.289062 62.625 -44.964844 C 60.710938 -40.535156 57.917969 -37.652344 53.617188 -37 C 48.054688 -36.152344 45.894531 -41 48.789062 -50.882812 C 50.457031 -58.636719 53.148438 -63.058594 52.417969 -67.863281 C 51.996094 -70.644531 50.570312 -72.367188 47.28125 -71.867188 C 41.339844 -70.964844 41.183594 -66.023438 37.011719 -65.390625 C 33.726562 -64.890625 33.5 -69.769531 23.386719 -68.234375 C 1.640625 -64.925781 -5.195312 -36.722656 -2.523438 -19.148438 C -0.8125 -7.894531 4.804688 -0.730469 13.402344 -2.039062 Z M 22.066406 -30.132812 C 18.144531 -29.535156 15.359375 -31.699219 14.707031 -35.996094 C 13.859375 -41.5625 17.089844 -48.390625 23.664062 -49.390625 C 27.710938 -50.003906 30.621094 -47.859375 31.257812 -43.6875 C 32.066406 -38.378906 28.640625 -31.132812 22.066406 -30.132812 Z M 22.066406 -30.132812 "/></g></g></g><g fill="#303030" fill-opacity="1"><g transform="translate(178.670057, 184.313057)"><g><path d="M 8.597656 -1.308594 C 16.941406 -2.578125 17.527344 -9.78125 16.546875 -16.226562 L 15.085938 -25.835938 C 13.914062 -33.550781 20.769531 -35.238281 22.636719 -28.925781 C 27.691406 -11.84375 32.238281 -4.902344 40.964844 -6.230469 C 58.789062 -8.941406 64.183594 -34.726562 67.152344 -42.421875 C 68.175781 -45.035156 63.21875 -49.582031 60.980469 -44.714844 C 58.570312 -39.304688 52.480469 -36.828125 45.148438 -35.710938 C 38.195312 -34.652344 33.402344 -36.382812 32.769531 -40.554688 C 32.308594 -43.589844 33.691406 -46.386719 37.972656 -47.167969 C 48.339844 -48.742188 52.996094 -53.851562 51.6875 -62.449219 C 50.917969 -67.503906 46.648438 -71.769531 39.0625 -70.617188 C 29.960938 -69.234375 25.222656 -61.269531 21.824219 -48.722656 C 20.828125 -45.078125 14.632812 -44.136719 14.757812 -48.421875 C 15.3125 -60.925781 19.886719 -73.390625 22.878906 -84.324219 C 25.316406 -92.976562 23.222656 -96.535156 18.039062 -95.75 C 7.796875 -94.191406 4.921875 -73.964844 -2.234375 -35.101562 C -3.667969 -27.511719 -4.226562 -19.277344 -3.246094 -12.832031 C -2.109375 -5.371094 1.265625 -0.191406 8.597656 -1.308594 Z M 8.597656 -1.308594 "/></g></g></g><g fill="#303030" fill-opacity="1"><g transform="translate(242.010616, 174.681394)"><g><path d="M 15.011719 -72.261719 C 21.585938 -73.261719 26.386719 -76.578125 25.953125 -84.535156 C 25.390625 -92.46875 19.84375 -94.082031 13.394531 -93.101562 C 6.441406 -92.046875 1.15625 -88.523438 2.519531 -79.546875 C 3.539062 -72.847656 8.941406 -71.339844 15.011719 -72.261719 Z M 11.378906 -1.730469 C 27.6875 -4.210938 32.011719 -30.222656 35.019531 -37.664062 C 35.9375 -40.132812 30.429688 -43.175781 28.867188 -39.832031 C 26.917969 -35.65625 24.898438 -32.761719 21.105469 -32.183594 C 17.691406 -31.664062 15.089844 -33.46875 14.457031 -37.640625 C 13.417969 -44.46875 17.835938 -53.679688 16.664062 -61.390625 C 16.050781 -65.4375 14.15625 -66.828125 11.5 -66.425781 C 4.292969 -65.332031 0.667969 -54.300781 -2.359375 -35.085938 C -3.332031 -28.726562 -3.558594 -21.707031 -2.65625 -15.765625 C -1.308594 -6.914062 2.90625 -0.441406 11.378906 -1.730469 Z M 11.378906 -1.730469 "/></g></g></g><g fill="#303030" fill-opacity="1"><g transform="translate(273.111972, 169.952074)"><g><path d="M 47.582031 -42.679688 C 45.628906 -38.5 43.628906 -35.480469 39.835938 -34.902344 C 34.148438 -34.039062 31.59375 -36.367188 31.054688 -39.90625 C 29.863281 -47.746094 34.492188 -53.882812 33.398438 -61.089844 C 32.359375 -67.917969 18.992188 -74.164062 7.105469 -72.355469 C 0.28125 -71.316406 -3.203125 -64.449219 -2.414062 -59.265625 C -1.722656 -54.714844 0.171875 -53.320312 2.832031 -52.820312 C 1.570312 -46.675781 -0.476562 -38.863281 -2.359375 -35.085938 C -3.636719 -32.433594 2.667969 -29.25 3.808594 -32.789062 C 5.199219 -37.269531 8.0625 -46.5 9.570312 -51.902344 C 14.914062 -50.777344 17.039062 -47.863281 17.230469 -46.601562 C 18.15625 -40.53125 11.113281 -27.300781 12.898438 -15.542969 C 13.878906 -9.097656 18.457031 -2.808594 28.828125 -4.382812 C 45.894531 -6.980469 50.761719 -32.8125 53.75 -40.382812 C 54.777344 -42.996094 49.140625 -46.019531 47.582031 -42.679688 Z M 47.582031 -42.679688 "/></g></g></g><g fill="#303030" fill-opacity="1"><g transform="translate(323.065414, 162.356077)"><g/></g></g><g fill="#303030" fill-opacity="1"><g transform="translate(92.85901, 303.837617)"><g><path d="M 11.425781 -0.574219 C 18.125 -1.59375 20.546875 -6.097656 19.988281 -9.765625 C 19.410156 -13.558594 16.699219 -13.535156 16.273438 -16.316406 C 16.0625 -17.707031 16.496094 -19.972656 19.53125 -20.433594 C 29.519531 -21.953125 28.972656 -4.277344 52.234375 -7.8125 C 71.074219 -10.679688 77.097656 -36.558594 80.175781 -44.402344 C 81.199219 -47.015625 75.566406 -50.039062 74.003906 -46.695312 C 71.839844 -42.226562 67.226562 -40.234375 61.410156 -39.347656 C 51.167969 -37.792969 46.617188 -43.050781 35.617188 -41.375 C 27.148438 -40.089844 24.082031 -37.292969 21.445312 -32.496094 C 20.519531 -30.929688 18.527344 -31.273438 18.296875 -32.792969 C 16.027344 -47.710938 79.410156 -51.140625 72.890625 -94 C 71.660156 -102.089844 69.695312 -107.355469 64.640625 -106.585938 C 58.949219 -105.722656 64.246094 -99.800781 54.765625 -98.359375 C 45.535156 -96.953125 33.410156 -101.835938 22.285156 -100.144531 C 5.34375 -97.570312 -3.683594 -83.777344 -1.683594 -70.628906 C -0.492188 -62.792969 4.949219 -56.761719 12.285156 -57.878906 C 15.949219 -58.4375 17.285156 -60.707031 17.035156 -62.351562 C 16.730469 -64.375 14.871094 -63.832031 14.410156 -66.867188 C 14.023438 -69.398438 15.488281 -71.6875 19.28125 -72.265625 C 26.867188 -73.417969 33.726562 -70.839844 41.183594 -71.976562 C 52.058594 -73.628906 51.945312 -80.335938 54.472656 -80.722656 C 55.738281 -80.914062 56.484375 -80.25 56.714844 -78.734375 C 59.695312 -59.136719 -9.703125 -61.261719 -2.28125 -12.460938 C -1.089844 -4.621094 3.460938 0.636719 11.425781 -0.574219 Z M 11.425781 -0.574219 "/></g></g></g><g fill="#303030" fill-opacity="1"><g transform="translate(169.221687, 292.225791)"><g><path d="M 15.011719 -72.261719 C 21.585938 -73.261719 26.386719 -76.578125 25.953125 -84.535156 C 25.390625 -92.46875 19.84375 -94.082031 13.394531 -93.101562 C 6.441406 -92.046875 1.15625 -88.523438 2.519531 -79.546875 C 3.539062 -72.847656 8.941406 -71.339844 15.011719 -72.261719 Z M 11.378906 -1.730469 C 27.6875 -4.210938 32.011719 -30.222656 35.019531 -37.664062 C 35.9375 -40.132812 30.429688 -43.175781 28.867188 -39.832031 C 26.917969 -35.65625 24.898438 -32.761719 21.105469 -32.183594 C 17.691406 -31.664062 15.089844 -33.46875 14.457031 -37.640625 C 13.417969 -44.46875 17.835938 -53.679688 16.664062 -61.390625 C 16.050781 -65.4375 14.15625 -66.828125 11.5 -66.425781 C 4.292969 -65.332031 0.667969 -54.300781 -2.359375 -35.085938 C -3.332031 -28.726562 -3.558594 -21.707031 -2.65625 -15.765625 C -1.308594 -6.914062 2.90625 -0.441406 11.378906 -1.730469 Z M 11.378906 -1.730469 "/></g></g></g><g fill="#303030" fill-opacity="1"><g transform="translate(200.323043, 287.496471)"><g><path d="M 8.597656 -1.308594 C 16.941406 -2.578125 17.527344 -9.78125 16.546875 -16.226562 L 15.085938 -25.835938 C 13.914062 -33.550781 20.769531 -35.238281 22.636719 -28.925781 C 27.691406 -11.84375 32.238281 -4.902344 40.964844 -6.230469 C 58.789062 -8.941406 64.183594 -34.726562 67.152344 -42.421875 C 68.175781 -45.035156 63.21875 -49.582031 60.980469 -44.714844 C 58.570312 -39.304688 52.480469 -36.828125 45.148438 -35.710938 C 38.195312 -34.652344 33.402344 -36.382812 32.769531 -40.554688 C 32.308594 -43.589844 33.691406 -46.386719 37.972656 -47.167969 C 48.339844 -48.742188 52.996094 -53.851562 51.6875 -62.449219 C 50.917969 -67.503906 46.648438 -71.769531 39.0625 -70.617188 C 29.960938 -69.234375 25.222656 -61.269531 21.824219 -48.722656 C 20.828125 -45.078125 14.632812 -44.136719 14.757812 -48.421875 C 15.3125 -60.925781 19.886719 -73.390625 22.878906 -84.324219 C 25.316406 -92.976562 23.222656 -96.535156 18.039062 -95.75 C 7.796875 -94.191406 4.921875 -73.964844 -2.234375 -35.101562 C -3.667969 -27.511719 -4.226562 -19.277344 -3.246094 -12.832031 C -2.109375 -5.371094 1.265625 -0.191406 8.597656 -1.308594 Z M 8.597656 -1.308594 "/></g></g></g><g fill="#303030" fill-opacity="1"><g transform="translate(263.663603, 277.864808)"><g><path d="M 47.582031 -42.679688 C 45.628906 -38.5 43.628906 -35.480469 39.835938 -34.902344 C 34.148438 -34.039062 31.59375 -36.367188 31.054688 -39.90625 C 29.863281 -47.746094 34.492188 -53.882812 33.398438 -61.089844 C 32.359375 -67.917969 18.992188 -74.164062 7.105469 -72.355469 C 0.28125 -71.316406 -3.203125 -64.449219 -2.414062 -59.265625 C -1.722656 -54.714844 0.171875 -53.320312 2.832031 -52.820312 C 1.570312 -46.675781 -0.476562 -38.863281 -2.359375 -35.085938 C -3.636719 -32.433594 2.667969 -29.25 3.808594 -32.789062 C 5.199219 -37.269531 8.0625 -46.5 9.570312 -51.902344 C 14.914062 -50.777344 17.039062 -47.863281 17.230469 -46.601562 C 18.15625 -40.53125 11.113281 -27.300781 12.898438 -15.542969 C 13.878906 -9.097656 18.457031 -2.808594 28.828125 -4.382812 C 45.894531 -6.980469 50.761719 -32.8125 53.75 -40.382812 C 54.777344 -42.996094 49.140625 -46.019531 47.582031 -42.679688 Z M 47.582031 -42.679688 "/></g></g></g><g fill="#303030" fill-opacity="1"><g transform="translate(313.602768, 270.270982)"><g><path d="M 15.011719 -72.261719 C 21.585938 -73.261719 26.386719 -76.578125 25.953125 -84.535156 C 25.390625 -92.46875 19.84375 -94.082031 13.394531 -93.101562 C 6.441406 -92.046875 1.15625 -88.523438 2.519531 -79.546875 C 3.539062 -72.847656 8.941406 -71.339844 15.011719 -72.261719 Z M 11.378906 -1.730469 C 27.6875 -4.210938 32.011719 -30.222656 35.019531 -37.664062 C 35.9375 -40.132812 30.429688 -43.175781 28.867188 -39.832031 C 26.917969 -35.65625 24.898438 -32.761719 21.105469 -32.183594 C 17.691406 -31.664062 15.089844 -33.46875 14.457031 -37.640625 C 13.417969 -44.46875 17.835938 -53.679688 16.664062 -61.390625 C 16.050781 -65.4375 14.15625 -66.828125 11.5 -66.425781 C 4.292969 -65.332031 0.667969 -54.300781 -2.359375 -35.085938 C -3.332031 -28.726562 -3.558594 -21.707031 -2.65625 -15.765625 C -1.308594 -6.914062 2.90625 -0.441406 11.378906 -1.730469 Z M 11.378906 -1.730469 "/></g></g></g></svg>